<svg viewBox="0 0 147 37" fill="none" xmlns="http://www.w3.org/2000/svg">
<path d="M142.767 32.8295C142.767 33.3182 142.668 33.7836 142.47 34.2257C142.284 34.6562 142.023 35.0344 141.685 35.3601C141.359 35.6859 140.975 35.9419 140.533 36.128C140.091 36.3258 139.62 36.4247 139.12 36.4247C138.619 36.4247 138.148 36.3258 137.706 36.128C137.264 35.9419 136.88 35.6859 136.554 35.3601C136.217 35.0344 135.949 34.6562 135.751 34.2257C135.565 33.7836 135.472 33.3182 135.472 32.8295C135.472 32.3409 135.565 31.8813 135.751 31.4508C135.949 31.0087 136.217 30.6247 136.554 30.299C136.88 29.9732 137.264 29.7172 137.706 29.531C138.148 29.3333 138.619 29.2344 139.12 29.2344C139.62 29.2344 140.091 29.3333 140.533 29.531C140.975 29.7172 141.359 29.9732 141.685 30.299C142.023 30.6247 142.284 31.0087 142.47 31.4508C142.668 31.8813 142.767 32.3409 142.767 32.8295ZM141.092 32.8295C141.092 32.2362 140.894 31.7242 140.498 31.2937C140.114 30.8632 139.655 30.648 139.12 30.648C138.584 30.648 138.119 30.8632 137.723 31.2937C137.339 31.7242 137.147 32.2362 137.147 32.8295C137.147 33.4229 137.339 33.9349 137.723 34.3654C138.119 34.7958 138.584 35.0111 139.12 35.0111C139.655 35.0111 140.114 34.7958 140.498 34.3654C140.894 33.9349 141.092 33.4229 141.092 32.8295ZM129.695 28.4315V21.8869H138.91V23.2831H131.336V27.0354H142.348V21.8869H146.188V23.2831H143.989V28.4315H129.695Z" fill="currentColor"/>
<path d="M107.575 24.2255L103.194 28.7108L102.112 27.716L107.906 21.4157L109.215 22.3407L108.605 23.0911L113.212 27.6986L112.13 28.7457L107.575 24.2255ZM115.638 29.0948V23.2831H112.357V21.8869H117.278V29.0948H115.638ZM116.057 32.8296C116.057 33.3182 115.958 33.7836 115.76 34.2258C115.574 34.6563 115.312 35.0344 114.975 35.3602C114.649 35.6859 114.265 35.9419 113.823 36.1281C113.381 36.3259 112.91 36.4248 112.409 36.4248C111.909 36.4248 111.438 36.3259 110.996 36.1281C110.553 35.9419 110.169 35.6859 109.844 35.3602C109.506 35.0344 109.239 34.6563 109.041 34.2258C108.855 33.7836 108.762 33.3182 108.762 32.8296C108.762 32.3409 108.855 31.8813 109.041 31.4508C109.239 31.0087 109.506 30.6248 109.844 30.299C110.169 29.9732 110.553 29.7172 110.996 29.5311C111.438 29.3333 111.909 29.2344 112.409 29.2344C112.91 29.2344 113.381 29.3333 113.823 29.5311C114.265 29.7172 114.649 29.9732 114.975 30.299C115.312 30.6248 115.574 31.0087 115.76 31.4508C115.958 31.8813 116.057 32.3409 116.057 32.8296ZM114.381 32.8296C114.381 32.2362 114.184 31.7243 113.788 31.2938C113.404 30.8633 112.944 30.648 112.409 30.648C111.874 30.648 111.409 30.8633 111.013 31.2938C110.629 31.7243 110.437 32.2362 110.437 32.8296C110.437 33.4229 110.629 33.9349 111.013 34.3654C111.409 34.7959 111.874 35.0111 112.409 35.0111C112.944 35.0111 113.404 34.7959 113.788 34.3654C114.184 33.9349 114.381 33.4229 114.381 32.8296Z" fill="currentColor"/>
<path d="M90.1146 26.1976H83.8841V27.4717H90.6382V28.8679H75.5244V27.4717H82.2261V26.1976H76.0654V21.8869H90.1146V23.2831H77.706V24.8014H90.1146V26.1976ZM86.7288 32.9866C86.7288 33.4753 86.6299 33.9407 86.4322 34.3828C86.246 34.8133 85.9842 35.1914 85.6468 35.5172C85.321 35.843 84.9371 36.0757 84.4949 36.2153C84.0528 36.3549 83.5816 36.4247 83.0813 36.4247C82.581 36.4247 82.1098 36.3549 81.6677 36.2153C81.2255 36.0757 80.8416 35.843 80.5158 35.5172C80.1784 35.1914 79.9108 34.8133 79.713 34.3828C79.5268 33.9407 79.4337 33.4753 79.4337 32.9866C79.4337 32.498 79.5268 32.0384 79.713 31.6079C79.9108 31.1658 80.1784 30.7818 80.5158 30.456C80.8416 30.1302 81.2255 29.8975 81.6677 29.7579C82.1098 29.6183 82.581 29.5485 83.0813 29.5485C83.5816 29.5485 84.0528 29.6183 84.4949 29.7579C84.9371 29.8975 85.321 30.1302 85.6468 30.456C85.9842 30.7818 86.246 31.1658 86.4322 31.6079C86.6299 32.0384 86.7288 32.498 86.7288 32.9866ZM85.0534 32.9866C85.0534 32.3932 84.8556 31.9104 84.46 31.5381C84.0761 31.1541 83.6165 30.9621 83.0813 30.9621C82.5461 30.9621 82.0807 31.1541 81.6851 31.5381C81.3012 31.9104 81.1092 32.3932 81.1092 32.9866C81.1092 33.58 81.3012 34.0687 81.6851 34.4526C82.0807 34.8249 82.5461 35.0111 83.0813 35.0111C83.6165 35.0111 84.0761 34.8249 84.46 34.4526C84.8556 34.0687 85.0534 33.58 85.0534 32.9866Z" fill="currentColor"/>
<path d="M63.9619 30.1244C63.9619 30.7527 63.8513 31.3461 63.6303 31.9046C63.4208 32.4631 63.1125 32.9459 62.7053 33.3531C62.2981 33.7604 61.8036 34.0861 61.2218 34.3305C60.6401 34.5632 59.9827 34.6795 59.2497 34.6795C58.3771 34.6795 57.6325 34.5399 57.0158 34.2607C56.4108 33.9698 55.9105 33.5858 55.5149 33.1088C55.1309 32.6318 54.8459 32.0849 54.6597 31.4683C54.4852 30.84 54.3979 30.1884 54.3979 29.5136H56.1432C56.1432 29.7463 56.1548 30.0779 56.1781 30.5084C56.213 30.9273 56.3293 31.3403 56.5271 31.7475C56.7249 32.1547 57.0333 32.5096 57.4521 32.8121C57.8826 33.1146 58.4993 33.2659 59.3021 33.2659C59.7907 33.2659 60.2212 33.1786 60.5935 33.0041C60.9659 32.8296 61.28 32.5969 61.536 32.306C61.7803 32.0268 61.9665 31.7126 62.0945 31.3636C62.2341 31.0029 62.3039 30.6422 62.3039 30.2815C62.3039 29.7463 62.2108 29.3042 62.0246 28.9551C61.8501 28.5945 61.6 28.3094 61.2742 28.1C60.9484 27.8905 60.5528 27.7451 60.0874 27.6637C59.622 27.5706 59.1043 27.524 58.5342 27.524V26.8259C58.8832 26.8492 59.2264 26.8259 59.5639 26.7561C59.9013 26.6747 60.198 26.5583 60.4539 26.4071C60.7215 26.2558 60.9368 26.0697 61.0997 25.8486C61.2626 25.6159 61.344 25.3483 61.344 25.0458C61.344 24.848 61.3033 24.6328 61.2218 24.4001C61.1404 24.1674 61.0182 23.9521 60.8553 23.7543C60.6924 23.5682 60.483 23.4111 60.227 23.2831C59.9827 23.1435 59.6918 23.0737 59.3544 23.0737C58.9356 23.0737 58.5865 23.1609 58.3073 23.3355C58.0397 23.4984 57.8244 23.702 57.6615 23.9463C57.4987 24.1906 57.3823 24.4466 57.3125 24.7142C57.2543 24.9818 57.2252 25.2203 57.2252 25.4298H55.4276C55.4276 25.0458 55.5033 24.6386 55.6545 24.2081C55.8058 23.766 56.0443 23.3587 56.3701 22.9864C56.6842 22.6141 57.0856 22.3058 57.5743 22.0614C58.0629 21.8055 58.6447 21.6775 59.3195 21.6775C59.7849 21.6775 60.2387 21.7648 60.6808 21.9393C61.1229 22.1138 61.5127 22.3523 61.8501 22.6548C62.1875 22.9457 62.4609 23.3006 62.6704 23.7194C62.8798 24.1266 62.9845 24.563 62.9845 25.0283C62.9845 25.4937 62.8973 25.8893 62.7227 26.2151C62.5482 26.5409 62.3446 26.7678 62.1119 26.8958C62.8333 27.2681 63.3219 27.7335 63.5779 28.2919C63.8339 28.8504 63.9619 29.4613 63.9619 30.1244Z" fill="currentColor"/>
<path d="M28.2462 25.0458H40.6723V23.2831H28.2462V21.8869H42.3128V26.442H29.8868V28.4315H42.3303V29.8452H36.1522V33.0739H42.8364V34.4701H27.7227V33.0739H34.5116V29.8452H28.2462V25.0458Z" fill="currentColor"/>
<path d="M13.5078 29.3914V23.2831H1.08168V21.8869H15.1657V29.3914H15.6719V30.7876H9.10977V33.4578C9.10977 33.772 9.13304 34.0338 9.17958 34.2432C9.22612 34.441 9.34829 34.5806 9.54608 34.662L9.45882 34.9064H7.1202L7.03294 34.662C7.23073 34.5806 7.3529 34.4468 7.39944 34.2606C7.44598 34.0745 7.46925 33.8011 7.46925 33.4404V30.7876H0.558105V29.3914H13.5078Z" fill="currentColor"/>
<path d="M143.651 9.89551V3.78718H131.225V2.39099H145.309V9.89551H145.815V11.2917H139.253V13.9619C139.253 14.2761 139.276 14.5378 139.323 14.7473C139.369 14.9451 139.491 15.0847 139.689 15.1661L139.602 15.4105H137.263L137.176 15.1661C137.374 15.0847 137.496 14.9509 137.543 14.7647C137.589 14.5786 137.612 14.3052 137.612 13.9445V11.2917H130.701V9.89551H143.651Z" fill="currentColor"/>
<path d="M125.779 13.578V3.78718H113.353V2.39099H127.437V13.578H127.943V14.9742H112.83V13.578H125.779ZM114.034 13.1766V8.56913C114.034 8.20845 114.022 7.91176 113.999 7.67906C113.976 7.43473 113.83 7.27184 113.563 7.1904L113.65 6.94606H116.041L116.128 7.1904C115.93 7.27184 115.808 7.42891 115.762 7.66161C115.715 7.88267 115.692 8.17937 115.692 8.55168V13.1766H114.034ZM118.222 13.1766V8.56913C118.222 8.20845 118.211 7.91176 118.187 7.67906C118.164 7.43473 118.019 7.27184 117.751 7.1904L117.838 6.94606H120.229L120.317 7.1904C120.119 7.27184 119.997 7.42891 119.95 7.66161C119.904 7.88267 119.88 8.17937 119.88 8.55168V13.1766H118.222Z" fill="currentColor"/>
<path d="M94.8013 14.9742V2.39099H101.939V3.78718H96.4418V13.578H104.575V2.39099H110.072V14.9742H108.432V3.78718H106.215V14.9742H94.8013Z" fill="currentColor"/>
<path d="M87.0876 2.93207C87.0876 3.24621 87.0236 3.5429 86.8956 3.82214C86.7677 4.10138 86.5931 4.34571 86.3721 4.55514C86.151 4.76457 85.8892 4.93328 85.5867 5.06126C85.2958 5.17761 84.9875 5.23579 84.6617 5.23579C84.336 5.23579 84.0218 5.17761 83.7193 5.06126C83.4284 4.93328 83.1725 4.76457 82.9514 4.55514C82.7303 4.34571 82.5558 4.10138 82.4278 3.82214C82.2998 3.5429 82.2359 3.24621 82.2359 2.93207C82.2359 2.61793 82.2998 2.32124 82.4278 2.042C82.5558 1.76276 82.7303 1.51843 82.9514 1.309C83.1725 1.09957 83.4284 0.936682 83.7193 0.820333C84.0218 0.692349 84.336 0.628357 84.6617 0.628357C84.9875 0.628357 85.2958 0.692349 85.5867 0.820333C85.8892 0.936682 86.151 1.09957 86.3721 1.309C86.5931 1.51843 86.7677 1.76276 86.8956 2.042C87.0236 2.32124 87.0876 2.61793 87.0876 2.93207ZM85.4471 2.94952C85.4471 2.68192 85.3773 2.46667 85.2377 2.30379C85.1097 2.12926 84.9177 2.042 84.6617 2.042C84.4058 2.042 84.208 2.12344 84.0684 2.28633C83.9404 2.44922 83.8764 2.67029 83.8764 2.94952C83.8764 3.20549 83.9462 3.42074 84.0858 3.59526C84.2254 3.75815 84.4174 3.8396 84.6617 3.8396C84.9177 3.8396 85.1097 3.76397 85.2377 3.61271C85.3773 3.44983 85.4471 3.22876 85.4471 2.94952ZM83.824 8.3074V7.06829H77.0874V5.67209H92.2012V7.06829H85.4645V8.3074H91.6776V12.2865H79.2515V13.578H91.6776V14.9742H77.611V10.8904H90.0371V9.7036H77.611V8.3074H83.824Z" fill="currentColor"/>
<path d="M69.7569 14.3284L68.3258 15.0091L63.7882 6.61446L59.7217 15.0265L58.3081 14.3633L63.9801 2.07684L65.5683 2.63532L64.6084 4.86922L69.7569 14.3284ZM72.1653 14.9742V3.78718H68.8842V2.39099H73.8058V14.9742H72.1653Z" fill="currentColor"/>
<path d="M49.2509 13.578V3.78718H36.8248V2.39099H50.9089V13.578H51.415V14.9742H36.3013V13.578H49.2509ZM37.5055 13.1766V8.56913C37.5055 8.20845 37.4938 7.91176 37.4706 7.67906C37.4473 7.43473 37.3019 7.27184 37.0343 7.1904L37.1215 6.94606H39.5125L39.5998 7.1904C39.402 7.27184 39.2798 7.42891 39.2333 7.66161C39.1867 7.88267 39.1635 8.17937 39.1635 8.55168V13.1766H37.5055ZM41.6941 13.1766V8.56913C41.6941 8.20845 41.6824 7.91176 41.6592 7.67906C41.6359 7.43473 41.4904 7.27184 41.2228 7.1904L41.3101 6.94606H43.7011L43.7883 7.1904C43.5905 7.27184 43.4684 7.42891 43.4218 7.66161C43.3753 7.88267 43.352 8.17937 43.352 8.55168V13.1766H41.6941Z" fill="currentColor"/>
<path d="M33.7005 8.04556L32.7406 9.24978L26.5799 6.26542L19.1452 9.09271L18.3599 7.76632L28.5695 3.78718H18.9532V2.39099H32.6708V3.61266L28.2205 5.49751L33.7005 8.04556ZM18.4297 10.4191H33.5434V11.8153H26.8068V13.9619C26.8068 14.2761 26.8301 14.5378 26.8766 14.7473C26.9232 14.9451 27.0453 15.0847 27.2431 15.1661L27.1559 15.4105H24.8172L24.73 15.1661C24.9278 15.0847 25.0499 14.9509 25.0965 14.7647C25.143 14.5786 25.1663 14.3052 25.1663 13.9445V11.8153H18.4297V10.4191Z" fill="currentColor"/>
<path d="M0.80281 1.466C0.80281 1.10532 0.77954 0.831897 0.733 0.645738C0.68646 0.459579 0.564294 0.325778 0.3665 0.244333L0.453762 0H2.79238L2.87964 0.244333C2.68185 0.325778 2.55968 0.471214 2.51314 0.680643C2.4666 0.878436 2.44333 1.1344 2.44333 1.44855V2.39098H9.21486V3.56029L6.45738 5.84655L10.3842 8.77855L9.35448 9.80824L5.30552 6.75407L0.959881 9.72097L0 8.63893L6.70171 3.78717H0.80281V1.466ZM15.1487 14.9741H0.907524V12.0945C0.907524 11.7338 0.895889 11.4371 0.872619 11.2044C0.849349 10.9601 0.703913 10.7972 0.43631 10.7158L0.523571 10.4714H2.91455L3.00181 10.7158C2.80402 10.7972 2.68185 10.9543 2.63531 11.187C2.58877 11.408 2.5655 11.7047 2.5655 12.077V13.578H13.5081V3.78717H10.5761V2.39098H15.1487V14.9741Z" fill="currentColor"/>
</svg>
