<svg viewBox="0 0 60 60" fill="none" xmlns="http://www.w3.org/2000/svg">
<path d="M49.6415 23.8114C48.8581 16.4098 45.7543 16.6008 39.603 16.2271C34.6157 15.9231 29.2102 15.9646 24.1964 16.1174C21.5951 16.1972 15.6201 16.1922 13.4573 17.3084C10.6375 18.7618 10.4128 22.6736 10.1881 25.6202C9.89475 29.4722 9.77928 38.6544 11.1182 42.0645C12.8472 46.4696 19.7756 45.659 23.5332 45.7902C29.5832 46.0028 36.0545 46.1905 42.0919 45.6291C47.5208 45.1241 49.0578 43.998 49.6586 38.0714C50.1158 33.565 50.1174 28.3144 49.6415 23.8114Z" stroke="white" stroke-width="3"/>
<path d="M27 25L37 30.4298L27 36V25Z" fill="white"/>
</svg>
