<svg viewBox="0 0 60 60" fill="none" xmlns="http://www.w3.org/2000/svg">
<path d="M10 9C10 8.44772 10.4477 8 11 8L40.1141 8C40.3481 8 40.5746 8.08202 40.7543 8.23178L46.1905 12.7619L49.3189 15.805C49.5098 15.9908 49.6188 16.245 49.6216 16.5114L49.9894 51.7038C49.9953 52.2602 49.5459 52.7143 48.9895 52.7143H11C10.4477 52.7143 10 52.2666 10 51.7143V9Z" stroke="white" stroke-width="3"/>
<path d="M40.4761 8V17.4762H49.9999" stroke="white" stroke-width="4"/>
<path d="M23.3333 17.4762L23.3333 33.6667" stroke="white" stroke-width="3"/>
<path d="M17.6191 23.1905L29.0477 23.1905" stroke="white" stroke-width="3"/>
<path d="M18.5715 41.7619H41.9049M30.0001 31.7619H41.9049" stroke="white" stroke-width="3"/>
</svg>
