<svg viewBox="0 0 60 60" fill="none" xmlns="http://www.w3.org/2000/svg">
<path d="M23.0234 29.4038C23.0234 29.4038 33.0718 16.4409 46.6244 16.1799C48.548 16.1412 50.3847 17.0016 51.593 18.4999C54.4446 22.0378 58.5868 29.8533 53.4103 41.7335C53.4103 41.7335 50.0463 52.1154 35.7978 55.9096C35.7978 55.9096 52.1972 46.1705 47.2527 39.6552C47.2527 39.6552 43.3571 35.7596 29.3502 34.3724C27.644 34.2032 25.9717 33.6958 24.5217 32.7774C23.0717 31.8591 21.9987 30.6943 23.0234 29.4038Z" fill="white" fill-opacity="0.6"/>
<path d="M8.50898 18.3211C8.50898 18.3211 10.3698 15.5274 13.8788 16.3152C13.8788 16.3152 22.7575 17.3882 22.1872 20.3945L13.1634 31.2066C13.1634 31.2066 21.5395 37.2192 24.048 39.5151C24.048 39.5151 27.557 42.4489 25.4787 45.6002C25.4787 45.6002 21.2737 51.4774 16.5999 51.4726C16.5999 51.4726 15.0968 51.6708 12.7671 49.4861C10.4375 47.3015 5 41.7867 5 30.5106C5 30.5106 5.57517 22.0234 8.50898 18.3211Z" fill="white" fill-opacity="0.6"/>
<path d="M18.1493 19.2946C19.8387 19.2946 21.2082 17.9251 21.2082 16.2357C21.2082 14.5463 19.8387 13.1768 18.1493 13.1768C16.4599 13.1768 15.0903 14.5463 15.0903 16.2357C15.0903 17.9251 16.4599 19.2946 18.1493 19.2946Z" fill="white"/>
<path d="M30.3851 10.1179C32.0745 10.1179 33.444 8.74833 33.444 7.05893C33.444 5.36953 32.0745 4 30.3851 4C28.6957 4 27.3262 5.36953 27.3262 7.05893C27.3262 8.74833 28.6957 10.1179 30.3851 10.1179Z" fill="white"/>
<path d="M41.6012 19.2946C43.2906 19.2946 44.6601 17.9251 44.6601 16.2357C44.6601 14.5463 43.2906 13.1768 41.6012 13.1768C39.9118 13.1768 38.5422 14.5463 38.5422 16.2357C38.5422 17.9251 39.9118 19.2946 41.6012 19.2946Z" fill="white"/>
<path d="M21.2083 42.7464L21.2083 23.3732" stroke="white" stroke-width="3"/>
<path d="M40.5815 42.7464L40.5815 23.3732" stroke="white" stroke-width="3"/>
<path d="M12.0315 31.5304L30.3851 14.1964L48.7386 31.5304" stroke="white" stroke-width="3"/>
<path d="M30.385 42.7464L30.385 14.1964" stroke="white" stroke-width="3"/>
</svg>
