<svg viewBox="0 0 60 60" fill="none" xmlns="http://www.w3.org/2000/svg">
<path d="M30 26L30 52" stroke="white" stroke-width="3"/>
<path d="M22 34L38 34" stroke="white" stroke-width="3"/>
<path d="M21.1053 46.5C17.4021 43.7262 15 39.2645 15 34.233C15 25.82 21.7157 19 30 19C38.2843 19 45 25.82 45 34.233C45 39.2645 42.5979 43.7262 38.8947 46.5" stroke="white" stroke-width="3"/>
<path d="M29 8L29 14" stroke="white" stroke-width="3"/>
<path d="M50 34L56 34" stroke="white" stroke-width="3"/>
<path d="M4 34L10 34" stroke="white" stroke-width="3"/>
<path d="M8.87504 50.1228L13.1177 45.8801" stroke="white" stroke-width="3"/>
<path d="M8.87504 18L13.1177 22.2426" stroke="white" stroke-width="3"/>
<path d="M51.2426 50.1228L47 45.8801" stroke="white" stroke-width="3"/>
<path d="M51.2426 18L47 22.2426" stroke="white" stroke-width="3"/>
</svg>
