<svg viewBox="0 0 60 60" fill="none" xmlns="http://www.w3.org/2000/svg">
<path d="M36.6346 39C41.5763 40.0031 45 42.1806 45 44.7053C45 48.1818 38.5081 51 30.5 51C22.4919 51 16 48.1818 16 44.7053C16 42.224 19.3069 40.0781 24.1118 39.0528" stroke="white" stroke-width="3"/>
<path d="M43.9951 22.9434C43.9951 14.7679 37.7269 8.13793 29.9976 8.13793C22.2682 8.13793 16 14.7679 16 22.9434C16 23.1288 16.0049 23.3143 16.0146 23.4997H16C16 30.2894 23.1449 38.6915 27.2263 42.9363C28.7654 44.5385 31.2346 44.5385 32.7737 42.9363C36.8551 38.6915 44 30.2842 44 23.4997H43.9854C43.9903 23.3143 44 23.1288 44 22.9434H43.9951Z" stroke="white" stroke-width="3"/>
<ellipse cx="30" cy="21.5" rx="6" ry="6.5" fill="white"/>
</svg>
