<svg width="116" height="132" viewBox="0 0 116 132" fill="none" xmlns="http://www.w3.org/2000/svg">
<path d="M73.4286 57.7832H41.5967V72.1195H73.4286V57.7832Z" fill="white"/>
<path d="M102.777 75.0389C102.777 75.0389 102.444 71.5174 98.3586 69.7567L80.4696 64.9597C79.2316 64.5371 77.9394 64.318 76.6395 64.2945L74.4344 64.2554L74.3802 60.9922C74.3802 60.9922 72.8637 63.5433 62.5032 64.451V72.1278H53.4813V64.451C43.1209 63.5511 41.6043 60.9922 41.6043 60.9922L41.5502 64.2554L39.345 64.2945C38.0451 64.318 36.7529 64.5371 35.5149 64.9597L17.6259 69.7567C13.5406 71.5174 13.2079 75.0389 13.2079 75.0389L0 132H116L102.792 75.0389H102.777Z" fill="#CBCFDB"/>
<path d="M57.5126 62.6352C66.3028 62.6352 73.4286 60.463 73.4286 57.7834C73.4286 55.1039 66.3028 52.9316 57.5126 52.9316C48.7225 52.9316 41.5967 55.1039 41.5967 57.7834C41.5967 60.463 48.7225 62.6352 57.5126 62.6352Z" fill="#D7DAE2"/>
<path d="M69.838 51.8906L57.5123 49.8169L45.1865 51.8906L43.8247 60.2639C43.8247 60.2639 48.1809 62.6428 57.5123 62.6428C66.8437 62.6428 71.1998 60.2639 71.1998 60.2639L69.838 51.8906Z" fill="#E9EBF0"/>
<path d="M37.8131 28.4613C37.8131 28.4613 35.4609 20.5106 36.9929 13.2407C36.9929 13.2407 39.1285 0.00787655 58.0079 0.00787655C58.0079 0.00787655 65.7298 -0.367768 70.117 4.06927C70.117 4.06927 77.5604 3.95972 79.4406 11.6756C79.4406 11.6756 81.1196 19.1959 78.5353 28.0152L50.4097 28.3126L37.8208 28.4456L37.8131 28.4613Z" fill="#CBCFDB"/>
<path d="M80.6863 30.2378C79.8816 26.8572 76.8949 27.225 76.3223 27.3267C76.3146 26.0903 76.2836 24.7991 76.2217 23.461C76.2217 23.461 74.9605 16.152 68.8402 13.953C68.198 13.7261 67.4939 13.9687 67.107 14.5399C65.7839 16.4728 61.8765 20.8003 53.2415 21.2855C53.2415 21.2855 48.8621 21.2151 45.2487 20.2917C45.2487 20.2917 40.7842 19.3917 40.0259 23.0932C39.8247 24.5644 39.6855 25.9886 39.5926 27.3502C39.4069 27.3111 36.0024 26.599 35.1358 30.2456C35.1358 30.2456 34.0449 37.0616 40.3354 41.0448C41.3258 46.327 42.8037 49.2615 42.8037 49.2615C44.6684 53.5655 47.6009 56.2105 50.4018 57.8304C55.1294 60.5615 60.8861 60.5615 65.6137 57.8304C68.4146 56.2105 71.3471 53.5655 73.2119 49.2615C73.2119 49.2615 74.4034 46.5696 75.3165 41.1544C81.8005 37.1868 80.694 30.2456 80.694 30.2456L80.6863 30.2378Z" fill="#E0E4EB"/>
<path d="M65.1416 82.6678H60.3444C60.2051 82.6678 60.089 82.5505 60.089 82.4096V77.6987C60.089 77.5578 59.973 77.4404 59.8337 77.4404H56.6072C56.4679 77.4404 56.3518 77.5578 56.3518 77.6987V82.4096C56.3518 82.5505 56.2358 82.6678 56.0965 82.6678H51.2993C51.16 82.6678 51.0439 82.7852 51.0439 82.9261V86.1893C51.0439 86.3302 51.16 86.4475 51.2993 86.4475H56.0965C56.2358 86.4475 56.3518 86.5649 56.3518 86.7058V95.799C56.3518 95.9398 56.4679 96.0572 56.6072 96.0572H59.8337C59.973 96.0572 60.089 95.9398 60.089 95.799V86.7058C60.089 86.5649 60.2051 86.4475 60.3444 86.4475H65.1416C65.2809 86.4475 65.3969 86.3302 65.3969 86.1893V82.9261C65.3969 82.7852 65.2809 82.6678 65.1416 82.6678Z" fill="white"/>
</svg>
