<svg width="112" height="129" viewBox="0 0 112 129" fill="none" xmlns="http://www.w3.org/2000/svg">
<path d="M55.271 0.0138938C55.271 0.0138938 46.6827 -0.412308 39.0196 3.45638C33.2558 6.3661 29.2196 11.8495 27.9669 18.1935C27.0745 22.726 25.7646 29.7667 24.9132 35.873L17.0371 94.805H93.505L85.6289 35.873C84.7856 29.7667 83.4675 22.726 82.5751 18.1935C81.3307 11.8495 77.2944 6.3661 71.5225 3.45638C63.8675 -0.412308 56.1389 0.0138938 56.1389 0.0138938H55.2547H55.271Z" fill="#CBCFDB"/>
<path d="M66.4305 54.8394H44.1288C44.1288 54.8394 44.62 66.2159 41.165 71.855H69.3943C65.9393 66.2159 66.4305 54.8394 66.4305 54.8394Z" fill="#E9EBF0"/>
<path d="M36.5844 24.6465C34.3007 40.1205 39.4468 49.5916 39.4468 49.5916C41.3678 53.6972 44.3922 56.2166 47.2777 57.7563C52.1459 60.3612 58.0789 60.3612 62.9549 57.7563C65.8404 56.2166 68.8647 53.6972 70.7858 49.5916C70.7858 49.5916 74.682 41.4735 73.895 24.9964C73.895 24.9964 72.5989 18.0292 66.2879 15.9297C65.6321 15.7119 64.8991 15.9452 64.4979 16.4818C63.1324 18.3246 63.8961 14.2812 55.0005 14.7477C55.0005 14.7477 49.1293 15.9763 45.4029 15.0899C45.4029 15.0899 37.3714 21.1084 36.5844 24.6387V24.6465Z" fill="#E0E4EB"/>
<path d="M55 11.0009C55 11.0009 36.5989 10.575 36 28C36 28 39.1498 16.9092 55 16.9092C70.8502 16.9092 74 28 74 28C73.4011 10.575 55 11.0009 55 11.0009Z" fill="white"/>
<path d="M8.38364 83.8296C6.47604 85.9033 4.86317 88.3212 4.28188 90.9604C4.28188 90.9604 0 108.394 0 129H112C112 108.386 107.718 90.9604 107.718 90.9604C107.137 88.3212 105.532 85.9033 103.616 83.8296C82.1988 89.9277 56 90.5014 56 90.5014C56 90.5014 29.8012 89.9277 8.38364 83.8296Z" fill="#CBCFDB"/>
<path d="M94.3077 76.7073C90.3042 74.6336 73.9955 70.0682 73.9955 70.0682L72.096 65.5356C67.2575 67.6093 56.0002 67.4372 56.0002 67.4372C56.0002 67.4372 44.7347 67.6093 39.9043 65.5356L38.0048 70.0682C38.0048 70.0682 21.6961 74.6336 17.6926 76.7073C17.6926 76.7073 12.3791 79.4941 8.38379 83.83C29.8013 89.9281 56.0002 90.5018 56.0002 90.5018C56.0002 90.5018 82.199 89.9281 103.617 83.83C99.6212 79.5023 94.3077 76.7073 94.3077 76.7073Z" fill="white"/>
</svg>
