<svg width="18" height="20" viewBox="-1 -1 20 22" fill="none" xmlns="http://www.w3.org/2000/svg">
<path d="M5.70053 0.338819C5.77159 0.406363 5.97398 0.697532 6.01985 0.790634C6.32747 1.42044 7.01827 4.67443 6.99938 5.37269C6.9706 6.4032 5.40101 6.39499 4.84693 7.03118C4.59777 7.75865 5.94069 10.0004 6.37784 10.6503C7.19277 11.8588 9.12215 13.8842 10.4372 14.472C11.7936 15.0781 11.7108 13.0673 12.721 12.8318C13.3506 12.6848 15.1244 13.499 15.7756 13.8002C16.2991 14.043 17.8201 14.6911 17.9451 15.2497C18.3265 16.9593 16.649 19.1782 15.1109 19.7277C10.0126 21.5486 3.58316 13.7874 1.4568 9.80141C-0.116389 6.85137 -1.26053 1.95349 2.67469 0.354334C3.43115 0.0467339 5.0727 -0.251737 5.70053 0.338819Z" fill="black"/>
</svg>
