<svg width="38" height="37" viewBox="0 0 38 37" fill="none" xmlns="http://www.w3.org/2000/svg">
<path d="M12.2868 16.4994L14.1871 10.7192C14.8309 9.63474 15.7811 10.0203 15.7811 10.0203C16.6383 10.3061 17.1581 11.1702 17.0135 12.0584L16.2802 16.5545C16.1184 17.5528 16.1632 18.5753 16.387 19.5599C17.0342 22.4104 17.0652 25.3987 17.0652 25.3987C17.0652 28.621 12.3659 31.1479 12.3659 31.1479L6.20703 24.7549C10.1971 23.0542 9.4328 20.5307 9.4328 20.5307C9.1264 19.2776 8.99214 18.1519 8.95427 17.1948C8.88198 15.5182 9.20214 13.8485 9.84936 12.2994L14.3971 1.39302C14.6656 0.73203 15.3783 0.370551 16.0702 0.542683C16.6589 0.690718 17.0239 1.27597 16.8999 1.86811L15.1855 10.0444" fill="white"/>
<path d="M12.2868 16.4994L14.1871 10.7192C14.8309 9.63474 15.7811 10.0203 15.7811 10.0203C16.6383 10.3061 17.1581 11.1702 17.0135 12.0584L16.2802 16.5545C16.1184 17.5528 16.1632 18.5753 16.387 19.5599C17.0342 22.4104 17.0652 25.3987 17.0652 25.3987C17.0652 28.621 12.3659 31.1479 12.3659 31.1479L6.20703 24.7549C10.1971 23.0542 9.4328 20.5307 9.4328 20.5307C9.1264 19.2776 8.99214 18.1519 8.95427 17.1948C8.88198 15.5182 9.20214 13.8485 9.84936 12.2994L14.3971 1.39302C14.6656 0.73203 15.3783 0.370551 16.0702 0.542683C16.6589 0.690718 17.0239 1.27597 16.8999 1.86811L15.1855 10.0444" stroke="#7B7D83" stroke-miterlimit="10"/>
<path d="M25.7132 16.4994L23.8129 10.7192C23.1691 9.63474 22.2189 10.0203 22.2189 10.0203C21.3617 10.3061 20.8419 11.1702 20.9865 12.0584L21.7197 16.5545C21.8815 17.5528 21.8368 18.5753 21.613 19.5599C20.9658 22.4104 20.9348 25.3987 20.9348 25.3987C20.9348 28.621 25.634 31.1479 25.634 31.1479L31.7929 24.7549C27.8029 23.0542 28.5672 20.5307 28.5672 20.5307C28.8736 19.2776 29.0078 18.1519 29.0457 17.1948C29.118 15.5182 28.7978 13.8485 28.1506 12.2994L23.6029 1.39302C23.3343 0.73203 22.6217 0.370551 21.9297 0.542683C21.341 0.690718 20.9761 1.27597 21.1001 1.86811L22.8145 10.0444" fill="white"/>
<path d="M25.7132 16.4994L23.8129 10.7192C23.1691 9.63474 22.2189 10.0203 22.2189 10.0203C21.3617 10.3061 20.8419 11.1702 20.9865 12.0584L21.7197 16.5545C21.8815 17.5528 21.8368 18.5753 21.613 19.5599C20.9658 22.4104 20.9348 25.3987 20.9348 25.3987C20.9348 28.621 25.634 31.1479 25.634 31.1479L31.7929 24.7549C27.8029 23.0542 28.5672 20.5307 28.5672 20.5307C28.8736 19.2776 29.0078 18.1519 29.0457 17.1948C29.118 15.5182 28.7978 13.8485 28.1506 12.2994L23.6029 1.39302C23.3343 0.73203 22.6217 0.370551 21.9297 0.542683C21.341 0.690718 20.9761 1.27597 21.1001 1.86811L22.8145 10.0444" stroke="#7B7D83" stroke-miterlimit="10"/>
<path d="M0 26.3437L3.01577 23.2349C3.76282 22.4672 4.99529 22.4604 5.74579 23.2246L12.8618 30.4611C13.867 31.4835 13.8739 33.1223 12.8755 34.1516L10.3796 36.7267L0 26.3402V26.3437Z" fill="#252629"/>
<path d="M37.9999 26.3437L34.9841 23.2349C34.2371 22.4672 33.0046 22.4604 32.2541 23.2246L25.1381 30.4611C24.1329 31.4835 24.126 33.1223 25.1244 34.1516L27.6203 36.7267L37.9999 26.3402V26.3437Z" fill="#252629"/>
</svg>
