<svg width="30" height="43" viewBox="0 0 30 43" fill="none" xmlns="http://www.w3.org/2000/svg">
<path d="M8.46397 2.3675e-05C8.07628 2.3675e-05 8.05092 0.413083 8.1415 0.699327C8.22846 0.96383 9.31183 2.83709 9.51474 3.09797C9.94954 3.65234 10.4097 3.38784 10.2467 2.78999C10.1887 2.57621 9.03646 0.48555 8.87341 0.282643C8.78283 0.17032 8.60528 0.00364701 8.46035 2.3675e-05H8.46397ZM20.9282 2.3675e-05C20.7833 2.3675e-05 20.6058 0.166696 20.5152 0.282643C20.334 0.510913 19.2108 2.53998 19.1419 2.78999C18.9753 3.38422 19.439 3.65234 19.8738 3.09797C20.0767 2.83709 21.1637 0.967453 21.2471 0.699327C21.3413 0.40946 21.3159 -0.00359966 20.9246 2.3675e-05H20.9282ZM3.76451 1.23196C2.90578 1.52182 5.08341 3.35523 5.06891 2.21388C5.06529 1.81169 4.15945 1.09789 3.76451 1.23196ZM25.2472 1.2392C24.9356 1.33341 23.9573 2.19939 24.432 2.53636C24.74 2.75376 25.6494 2.05083 25.7509 1.85155C25.961 1.42762 25.7219 1.10152 25.2472 1.24283V1.2392ZM16.3701 12.323H22.1819C22.2 12.323 22.4428 12.0802 22.4428 12.0621V9.13082L22.287 8.97502H16.5259L16.3701 8.81921V3.16319C16.3701 3.08348 16.1164 2.92768 16.0005 2.90231C15.7143 2.84796 13.4134 2.86608 13.2286 2.95304C13.1779 2.97478 13.0185 3.14145 13.0185 3.15957V8.81559L12.8627 8.97139H7.1016L6.9458 9.1272V12.0585C6.9458 12.0766 7.18856 12.3193 7.20668 12.3193H13.0185V15.4608C11.0691 15.6093 9.10168 16.3195 7.51829 17.45C6.99653 15.863 6.06895 16.8304 5.21747 17.5587C3.45291 19.0696 1.85502 21.2472 1.02527 23.4249C0.858601 23.8597 0.0469794 25.9032 0.724542 26.0264L1.06875 25.8779C1.94922 24.6387 2.86955 23.3379 4.00728 22.3234C5.06167 21.3813 6.25374 20.8523 6.99653 19.5515C7.68858 18.3377 7.35885 18.3594 8.72123 17.6094C9.99664 16.9065 11.5583 16.3666 13.0185 16.3014L13.004 17.3377C11.9786 17.5225 9.81548 18.508 9.76113 19.7073C9.68142 21.4212 12.196 19.845 12.8627 19.758C13.1598 19.7182 12.975 20.2363 13.0112 20.3813C9.88431 20.8885 6.54361 23.3451 6.83347 26.8308C6.96029 28.3598 7.85525 29.5628 9.49662 29.3816C10.3372 29.2874 10.5474 28.9106 11.5184 29.2657C12.9315 29.7838 13.5185 31.4505 13.7359 32.8093C14.033 34.6862 13.7287 39.0921 16.794 38.4581C18.2687 38.1537 18.3919 36.9942 19.0912 36.0413C19.8485 35.0159 20.8376 35.0123 21.055 33.3963C21.113 32.976 21.0333 32.5557 21.0804 32.1643C21.258 30.6788 24.4429 29.0229 23.8305 27.5301C23.4356 26.5735 22.3051 26.983 21.5587 26.867C20.6384 26.7257 19.9644 25.4213 19.9282 24.5698C20.4862 25.2438 20.8956 26.2076 21.8739 26.3416C23.0588 26.5047 25.0951 26.0989 24.845 24.5227C24.7943 24.2039 24.4465 23.9321 24.5878 23.6278C24.8922 23.8053 25.1385 24.0481 25.3704 24.3126C25.6023 24.5771 27.1422 26.5989 27.2038 26.7764C27.3741 27.2873 27.3995 28.8635 27.3705 29.4468C26.914 37.9834 18.0513 43.7083 10.0546 40.5741C9.33358 40.2915 6.89869 39.0052 6.51462 38.4291C5.35153 36.679 5.97836 34.8818 5.52907 33.1535C5.10514 31.5303 3.33696 31.4107 2.43475 30.2766C1.71371 29.3707 1.32239 28.1352 0.757151 27.1315C0.133938 26.7402 0.0469785 27.9142 0.0216152 28.2874C-0.206655 31.7187 1.39848 35.8348 3.63408 38.3965C4.00003 38.8168 5.80808 40.6357 6.25012 40.5994C6.71029 40.5161 6.60521 39.9726 6.77913 39.6538C10.08 42.1321 14.5041 42.8061 18.4607 41.6973C24.4972 40.0052 28.6967 33.9796 28.0988 27.7149C28.2039 27.5953 28.9503 28.4323 29.2583 27.9576C29.5083 27.5736 28.9575 25.3162 28.8017 24.7582C27.5263 20.2001 23.7907 16.2253 19.247 14.8267C18.2941 14.5332 17.3665 14.2651 16.3628 14.5151V12.3157L16.3701 12.323ZM6.59433 3.63785C6.45665 3.68133 6.37694 3.85887 6.35157 3.99656C6.35157 4.26106 7.93497 5.67416 8.17048 5.71039C8.5618 5.76837 8.7176 5.37705 8.51832 5.03645C8.35889 4.76833 6.92043 3.53277 6.59433 3.63785ZM22.5225 3.6451C22.3739 3.67408 20.9645 4.87703 20.8703 5.03645C20.671 5.37342 20.8268 5.76837 21.2181 5.71039C21.4101 5.68141 22.7689 4.47484 22.9138 4.25019C22.9645 4.1741 23.037 4.09801 23.037 3.99656C22.9718 3.70307 22.8377 3.57988 22.5225 3.6451ZM5.45298 6.69232C5.35153 6.59449 2.99637 5.83359 2.79346 5.83359C2.3333 5.83359 2.18837 6.33723 2.51447 6.56912C2.63404 6.65608 4.94934 7.39162 5.12689 7.39887C5.3153 7.40611 5.43849 7.34452 5.53994 7.18871C5.61603 7.0474 5.56169 6.79377 5.45661 6.69232H5.45298ZM26.9248 6.53651C27.2111 6.25752 27.0046 5.82997 26.5987 5.83359C26.4176 5.83359 24.1131 6.56912 23.9863 6.65971C23.6602 6.89522 23.8196 7.42061 24.2689 7.39887C24.4718 7.388 26.827 6.63434 26.9248 6.53651ZM0.253503 10.1345C-0.1197 11.1961 2.19561 11.0838 1.76081 10.2251C1.63399 9.88085 0.336839 9.99679 0.253503 10.1345ZM4.31164 10.1345C4.22468 9.99679 2.92752 9.88085 2.80433 10.2251C2.36953 11.0838 4.68484 11.1961 4.31164 10.1345ZM25.3487 10.0403C24.9755 10.149 24.9574 10.7178 25.3487 10.8374C25.798 10.9715 26.885 10.9425 26.5879 10.2287C26.4466 9.94969 25.6241 9.96056 25.3487 10.0403ZM29.1387 10.1345C28.7148 9.93882 27.356 9.84099 27.5915 10.5765C27.7328 11.0186 29.5191 11.0802 29.1387 10.1345ZM6.07982 13.8122C6.02548 13.7578 5.92764 13.7324 5.84793 13.7324C5.64502 13.7324 3.11956 14.526 2.92752 14.6419C2.64128 14.8194 2.65215 15.2977 3.01811 15.3629C3.24275 15.4028 5.56169 14.6926 5.86605 14.5441C6.00374 14.4752 6.13779 14.3883 6.19576 14.2397C6.22475 14.1201 6.16316 13.8991 6.07982 13.8122ZM23.3124 13.8158C23.0406 14.0948 23.2182 14.3955 23.5262 14.5441C23.8341 14.6926 26.1494 15.4028 26.3741 15.3629C26.74 15.3014 26.7509 14.8194 26.4647 14.6419C26.2871 14.5332 23.9646 13.7651 23.7073 13.7252C23.5733 13.7035 23.4138 13.7071 23.3124 13.8122V13.8158ZM23.1493 33.61C22.8957 33.6861 22.4645 34.4507 22.2435 34.6934C22.0442 34.9108 21.7544 35.0268 21.5551 35.2623C20.9427 35.9833 20.8521 37.8059 22.1602 37.5486C22.9935 37.3856 24.0117 35.6898 24.1131 34.8927C24.2037 34.1789 24.0697 33.3383 23.1493 33.6137V33.61Z" fill="white"/>
<path d="M16.37 12.3228V14.5222C17.3701 14.2722 18.2977 14.5403 19.2542 14.8338C23.7979 16.2324 27.5335 20.2072 28.8089 24.7654C28.9647 25.3234 29.5155 27.5807 29.2655 27.9648C28.9575 28.4394 28.2111 27.6024 28.106 27.722C28.7039 33.9904 24.5044 40.0123 18.468 41.7044C14.5113 42.8132 10.0872 42.1392 6.78633 39.6609C6.61604 39.9797 6.72112 40.5232 6.25733 40.6066C5.81891 40.6428 4.00724 38.8239 3.64129 38.4036C1.40569 35.8419 -0.195822 31.7258 0.0288249 28.2945C0.0541882 27.9177 0.141148 26.7473 0.764361 27.1386C1.32598 28.1387 1.72092 29.3779 2.44196 30.2837C3.34417 31.4178 5.11236 31.5374 5.53629 33.1606C5.98559 34.8889 5.35875 36.6861 6.52184 38.4362C6.90591 39.0123 9.34079 40.2986 10.0618 40.5812C18.0585 43.7154 26.9212 37.9941 27.3777 29.454C27.4103 28.8706 27.3813 27.2944 27.211 26.7836C27.1531 26.6096 25.6132 24.5878 25.3776 24.3197C25.1421 24.0516 24.8994 23.816 24.595 23.6349C24.4537 23.9392 24.8015 24.211 24.8523 24.5298C25.1059 26.106 23.0696 26.5082 21.8811 26.3488C20.9028 26.2147 20.4934 25.2509 19.9354 24.5769C19.9716 25.4284 20.642 26.7328 21.5659 26.8741C22.3123 26.9901 23.4428 26.577 23.8377 27.5372C24.4501 29.03 21.2652 30.6823 21.0876 32.1714C21.0405 32.5628 21.1202 32.9831 21.0623 33.4034C20.8449 35.0194 19.8557 35.023 19.0984 36.0484C18.3955 36.9977 18.2723 38.1608 16.8012 38.4652C13.7359 39.0993 14.0402 34.6933 13.7431 32.8164C13.5257 31.454 12.9388 29.7873 11.5257 29.2728C10.5546 28.9177 10.3444 29.2945 9.50383 29.3887C7.86246 29.5699 6.9675 28.367 6.84068 26.8379C6.55082 23.3486 9.89153 20.892 13.0185 20.3884C12.9822 20.2434 13.167 19.7289 12.8699 19.7652C12.2032 19.8521 9.69225 21.4246 9.76834 19.7144C9.82269 18.5151 11.9858 17.5259 13.0112 17.3448L13.0257 16.3085C11.5655 16.3737 10.0039 16.9136 8.72845 17.6165C7.36607 18.3666 7.69579 18.3448 7.00374 19.5586C6.26095 20.8594 5.06888 21.3884 4.01449 22.3305C2.87676 23.345 1.95644 24.6458 1.07597 25.885L0.731752 26.0335C0.0541891 25.9103 0.86581 23.8668 1.03248 23.432C1.86223 21.258 3.46012 19.0767 5.22468 17.5658C6.07616 16.8375 7.00736 15.8701 7.5255 17.4571C9.10889 16.3266 11.0764 15.6201 13.0257 15.4679V12.3265H7.21388C7.19577 12.3265 6.95302 12.0837 6.95302 12.0656V9.13431L7.10882 8.97851H12.8699L13.0257 8.82271V3.16669C13.0257 3.14857 13.1888 2.9819 13.2359 2.96016C13.4207 2.8732 15.7215 2.85508 16.0077 2.90943C16.1237 2.93117 16.3773 3.09059 16.3773 3.17031V8.82633L16.5331 8.98213H22.2942L22.45 9.13793V12.0692C22.45 12.0873 22.2072 12.3301 22.1891 12.3301H16.3773L16.37 12.3228ZM15.6381 3.73192H13.754V9.54375L13.5982 9.69955H7.8371L7.6813 9.85535V11.4786H13.4931C13.5112 11.4786 13.6779 11.6417 13.6997 11.6888L13.7468 26.3053L13.9098 26.6676H15.4823L15.6454 26.3053L15.6925 11.6888C15.7142 11.638 15.8809 11.4786 15.899 11.4786H21.7108V9.85535L21.555 9.69955H15.7939L15.6381 9.54375V3.73192ZM16.37 15.5186V19.7072C16.8302 19.9862 17.3918 19.8159 17.9861 19.9753C19.8593 20.4753 20.2688 23.0588 18.4426 22.8812C17.8375 22.8233 17.2396 22.2798 16.544 22.5008L16.37 22.6421V27.251C16.37 27.3307 16.1164 27.4865 16.0005 27.5118C15.7142 27.5662 13.4134 27.5481 13.2286 27.4611C13.1779 27.4394 13.0185 27.2727 13.0185 27.2546V21.2326C10.3082 21.5805 6.95663 24.211 7.70666 27.2256C7.8371 27.751 8.10523 28.2764 8.61974 28.5119C9.23208 28.7909 9.67051 28.4285 10.2539 28.3633C12.6344 28.1097 13.9931 30.0119 14.4352 32.1207C14.7069 33.3998 14.5692 39.5377 17.3157 37.313C17.881 36.8528 18.1165 36.0013 18.573 35.4288C19.0948 34.7766 20.0731 34.4034 20.2217 33.5157C20.3557 32.7186 20.1311 32.1388 20.5188 31.2982C20.9065 30.4576 23.0261 28.6387 23.0768 28.088C23.1276 27.5372 22.1927 27.7727 21.7652 27.7256C19.9898 27.5408 18.939 25.6966 19.2035 24.0153C19.2506 23.7073 19.4535 23.4537 19.7796 23.4356C20.8195 23.3704 20.8811 25.7473 22.5841 25.6277C22.8884 25.606 23.9283 25.2726 24.0696 25.0045C24.3051 24.5552 23.1855 23.8559 23.8015 23.1711C24.0914 22.8486 24.5733 22.8595 24.9573 22.9609C26.0987 23.2653 27.3125 26.1277 28.4104 26.7872C27.6857 21.8341 24.2073 17.5658 19.5332 15.8157C18.5984 15.4643 17.2723 14.9208 16.3664 15.5259L16.37 15.5186ZM2.02166 23.2182C2.85865 22.0624 4.08695 21.3884 5.10873 20.4898C5.89499 19.7978 6.95663 18.6963 6.63053 17.5586C4.62683 18.9608 2.96735 20.9464 2.02528 23.2146L2.02166 23.2182ZM13.0185 18.189C12.0945 18.4463 10.9785 18.7832 10.6126 19.7615L13.0148 18.9209V18.1926L13.0185 18.189ZM16.37 21.6457C16.7251 21.6602 17.0911 21.6094 17.4462 21.671C17.8013 21.7326 18.1998 22.0479 18.5296 22.0624C19.1926 22.0913 18.6781 21.3667 18.4172 21.1167C17.8013 20.5261 17.1454 20.7253 16.37 20.7V21.642V21.6457ZM5.895 39.3456C6.04355 39.1862 5.06526 37.0666 4.9783 36.6499C4.78988 35.7332 4.93843 34.744 4.84785 33.849C4.69205 32.2838 3.41664 32.2294 2.43834 31.4432C1.71729 30.8634 1.4383 30.088 0.86944 29.396C1.03974 32.9686 2.7427 36.8492 5.52904 39.1391C5.64861 39.2369 5.69934 39.3927 5.895 39.3493V39.3456Z" fill="#7B7D83"/>
<path d="M23.1491 33.6102C24.0695 33.3348 24.2035 34.1755 24.1129 34.8893C24.0115 35.6864 22.9897 37.3821 22.16 37.5451C20.8519 37.8024 20.9389 35.9799 21.5549 35.2588C21.7542 35.0233 22.044 34.911 22.2433 34.69C22.4679 34.4472 22.8991 33.6827 23.1491 33.6066V33.6102ZM21.9244 36.7299C22.1563 36.9908 23.4173 35.0849 23.2832 34.7407C22.794 35.4038 21.7831 35.7444 21.9244 36.7299Z" fill="#7B7D83"/>
<path d="M8.46407 2.3675e-05C8.609 2.3675e-05 8.78655 0.166696 8.87713 0.282643C9.04018 0.489173 10.1888 2.57621 10.2504 2.78999C10.4134 3.38784 9.95326 3.65234 9.51846 3.09797C9.31555 2.83709 8.22855 0.967453 8.14521 0.699327C8.05101 0.40946 8.07638 -0.00359966 8.4677 2.3675e-05H8.46407Z" fill="#BD2125"/>
<path d="M6.07987 13.8121C6.16321 13.8991 6.2248 14.1201 6.19581 14.2397C6.13422 14.3919 6.00379 14.4788 5.8661 14.5441C5.56174 14.6926 3.2428 15.4028 3.01816 15.3629C2.6522 15.3013 2.64133 14.8194 2.92757 14.6419C3.11961 14.5259 5.64507 13.7288 5.84798 13.7324C5.92407 13.7324 6.02553 13.7542 6.07987 13.8121Z" fill="#BD2125"/>
<path d="M5.45283 6.69224C5.55791 6.7937 5.61226 7.04733 5.53617 7.18864C5.43472 7.34444 5.31152 7.40966 5.12311 7.39879C4.94556 7.39155 2.63388 6.65601 2.51069 6.56905C2.18459 6.33353 2.33314 5.82989 2.78968 5.83352C2.99259 5.83352 5.34775 6.59441 5.4492 6.69224H5.45283Z" fill="#BD2125"/>
<path d="M6.59432 3.63767C6.92042 3.53259 8.35888 4.76815 8.51831 5.03628C8.71759 5.37325 8.56179 5.76819 8.17047 5.71022C7.93133 5.67398 6.35156 4.26088 6.35156 3.99638C6.37693 3.86232 6.45663 3.68477 6.59432 3.63767Z" fill="#BD2125"/>
<path d="M3.76428 1.23161C4.15923 1.09755 5.06506 1.81134 5.06869 2.21353C5.08318 3.35488 2.90556 1.52148 3.76428 1.23161Z" fill="#BD2125"/>
<path d="M0.253543 10.1343C0.340503 9.99664 1.63766 9.88069 1.76085 10.2249C2.19565 11.0836 -0.11966 11.196 0.253543 10.1343Z" fill="#BD2125"/>
<path d="M4.31144 10.1343C4.68464 11.196 2.36933 11.0836 2.80413 10.2249C2.93095 9.88069 4.2281 9.99664 4.31144 10.1343Z" fill="#BD2125"/>
<path d="M20.928 0C21.3157 0 21.3411 0.41306 21.2505 0.699303C21.1635 0.963806 20.0802 2.83707 19.8773 3.09795C19.4425 3.65232 18.9787 3.38419 19.1454 2.78997C19.2142 2.53996 20.3374 0.510889 20.5186 0.282619C20.6092 0.170296 20.7867 0.00362333 20.9316 0H20.928Z" fill="#BD2125"/>
<path d="M23.3123 13.8156C23.4137 13.7142 23.5732 13.7105 23.7072 13.7286C23.9609 13.7685 26.287 14.5367 26.4646 14.6454C26.7508 14.8229 26.7399 15.3012 26.374 15.3664C26.1493 15.4063 23.8304 14.6961 23.5261 14.5475C23.2217 14.399 23.0405 14.0946 23.3123 13.8192V13.8156Z" fill="#BD2125"/>
<path d="M26.9246 6.53644C26.8231 6.63427 24.4716 7.38793 24.2686 7.3988C23.8194 7.42054 23.6599 6.89515 23.986 6.65964C24.1128 6.56543 26.4209 5.83352 26.5984 5.83352C27.0043 5.8299 27.2108 6.25745 26.9246 6.53644Z" fill="#BD2125"/>
<path d="M22.5227 3.64496C22.8379 3.57974 22.972 3.70293 23.0372 3.99642C23.0372 4.09425 22.9647 4.17034 22.914 4.25005C22.7691 4.4747 21.4067 5.68127 21.2183 5.71025C20.8269 5.76823 20.6711 5.37691 20.8704 5.03631C20.9646 4.87689 22.3741 3.67394 22.5227 3.64496Z" fill="#BD2125"/>
<path d="M25.2472 1.23901C25.7218 1.0977 25.961 1.4238 25.7508 1.84773C25.653 2.04702 24.7435 2.75357 24.4319 2.53254C23.9573 2.1992 24.9356 1.3296 25.2472 1.23539V1.23901Z" fill="#BD2125"/>
<path d="M25.3485 10.0402C25.6203 9.96052 26.4464 9.94965 26.5877 10.2286C26.8848 10.9424 25.7978 10.9678 25.3485 10.8374C24.9572 10.7214 24.9753 10.1526 25.3485 10.0402Z" fill="#BD2125"/>
<path d="M29.1388 10.1343C29.5193 11.08 27.733 11.0184 27.5917 10.5764C27.3562 9.84082 28.7149 9.94227 29.1388 10.1343Z" fill="#BD2125"/>
<path d="M16.3702 15.5186C17.276 14.9135 18.6022 15.457 19.537 15.8085C24.2111 17.5585 27.6895 21.8268 28.4142 26.7799C27.3163 26.1205 26.1025 23.258 24.9611 22.9537C24.5734 22.8522 24.0915 22.8414 23.8053 23.1638C23.1893 23.8486 24.3125 24.548 24.0734 24.9972C23.9321 25.2654 22.8922 25.5987 22.5878 25.6205C20.8849 25.7437 20.8233 23.3631 19.7834 23.4283C19.4573 23.4501 19.2544 23.7001 19.2073 24.0081C18.9428 25.6893 19.9935 27.5336 21.769 27.7184C22.1965 27.7618 23.1313 27.5046 23.0806 28.0807C23.0299 28.6568 20.9211 30.4322 20.5225 31.291C20.124 32.1497 20.3595 32.7113 20.2254 33.5084C20.0769 34.3962 19.0986 34.7694 18.5768 35.4216C18.1203 35.9941 17.8848 36.8492 17.3195 37.3057C14.5767 39.534 14.7107 33.3961 14.439 32.1135C13.9933 30.0083 12.6382 28.1024 10.2576 28.3561C9.67429 28.4177 9.23586 28.78 8.62352 28.5046C8.10539 28.2691 7.83726 27.7437 7.71045 27.2183C6.96404 24.2001 10.312 21.5696 13.0223 21.2254V27.2473C13.0223 27.2654 13.1853 27.4321 13.2324 27.4539C13.4172 27.5408 15.718 27.5589 16.0042 27.5046C16.1202 27.4829 16.3738 27.3234 16.3738 27.2437V22.6348L16.5477 22.4935C17.2434 22.2689 17.8449 22.8124 18.4464 22.874C20.2725 23.0515 19.8631 20.4681 17.9898 19.9681C17.3956 19.8086 16.834 19.9789 16.3738 19.6999V15.5114L16.3702 15.5186Z" fill="white"/>
<path d="M15.638 3.73193V9.54376L15.7938 9.69956H21.5549L21.7107 9.85536V11.4786H15.8989C15.8807 11.4786 15.7141 11.6417 15.6923 11.6888L15.6452 26.3053L15.4822 26.6676H13.9097L13.7466 26.3053L13.6995 11.6888C13.6778 11.638 13.5111 11.4786 13.493 11.4786H7.68115V9.85536L7.83695 9.69956H13.5981L13.7539 9.54376V3.73193H15.638Z" fill="white"/>
<path d="M5.89494 39.3456C5.69928 39.3927 5.64855 39.2333 5.52898 39.1355C2.74264 36.8455 1.03606 32.9686 0.869385 29.3923C1.43462 30.0808 1.71724 30.8562 2.43828 31.4395C3.41658 32.2258 4.69199 32.2801 4.84779 33.8454C4.93838 34.744 4.78983 35.7332 4.97824 36.6462C5.0652 37.0629 6.0435 39.179 5.89494 39.342V39.3456Z" fill="white"/>
<path d="M2.02145 23.218C2.96714 20.9498 4.623 18.9642 6.6267 17.562C6.9528 18.6961 5.89479 19.8012 5.10491 20.4933C4.08313 21.3919 2.85481 22.0622 2.01782 23.2217L2.02145 23.218Z" fill="white"/>
<path d="M16.3701 21.6457V20.7037C17.1455 20.729 17.8013 20.5297 18.4173 21.1203C18.6782 21.3704 19.1927 22.095 18.5296 22.066C18.1999 22.0515 17.7941 21.7327 17.4462 21.6747C17.0984 21.6167 16.7288 21.6638 16.3701 21.6493V21.6457Z" fill="white"/>
<path d="M13.0184 18.1892V18.9175L10.6125 19.7581C10.9821 18.7798 12.0945 18.4464 13.0184 18.1855V18.1892Z" fill="white"/>
<path d="M16.7529 9.02075H22.5518V12.2424H16.7529V27.7063H12.8867V12.2424H7.08789V9.02075H12.8867V2.57739H16.7529V9.02075Z" fill="white"/>
<path d="M16.7529 9.02075H16.3529V9.42075H16.7529V9.02075ZM22.5518 9.02075H22.9518V8.62075H22.5518V9.02075ZM22.5518 12.2424V12.6424H22.9518V12.2424H22.5518ZM16.7529 12.2424V11.8424H16.3529V12.2424H16.7529ZM16.7529 27.7063V28.1063H17.1529V27.7063H16.7529ZM12.8867 27.7063H12.4867V28.1063H12.8867V27.7063ZM12.8867 12.2424H13.2867V11.8424H12.8867V12.2424ZM7.08789 12.2424H6.68789V12.6424H7.08789V12.2424ZM7.08789 9.02075V8.62075H6.68789V9.02075H7.08789ZM12.8867 9.02075V9.42075H13.2867V9.02075H12.8867ZM12.8867 2.57739V2.17739H12.4867V2.57739H12.8867ZM16.7529 2.57739H17.1529V2.17739H16.7529V2.57739ZM16.7529 9.02075V9.42075H22.5518V9.02075V8.62075H16.7529V9.02075ZM22.5518 9.02075H22.1518V12.2424H22.5518H22.9518V9.02075H22.5518ZM22.5518 12.2424V11.8424H16.7529V12.2424V12.6424H22.5518V12.2424ZM16.7529 12.2424H16.3529V27.7063H16.7529H17.1529V12.2424H16.7529ZM16.7529 27.7063V27.3063H12.8867V27.7063V28.1063H16.7529V27.7063ZM12.8867 27.7063H13.2867V12.2424H12.8867H12.4867V27.7063H12.8867ZM12.8867 12.2424V11.8424H7.08789V12.2424V12.6424H12.8867V12.2424ZM7.08789 12.2424H7.48789V9.02075H7.08789H6.68789V12.2424H7.08789ZM7.08789 9.02075V9.42075H12.8867V9.02075V8.62075H7.08789V9.02075ZM12.8867 9.02075H13.2867V2.57739H12.8867H12.4867V9.02075H12.8867ZM12.8867 2.57739V2.97739H16.7529V2.57739V2.17739H12.8867V2.57739ZM16.7529 2.57739H16.3529V9.02075H16.7529H17.1529V2.57739H16.7529Z" fill="#252629"/>
</svg>
