<svg width="39" height="39" viewBox="0 0 39 39" fill="none" xmlns="http://www.w3.org/2000/svg">
<path d="M11.4035 19.9562L5.22656 26.1331L12.8289 33.2602L16.6301 29.9342H27.5584C29.0789 29.9342 30.4093 28.9839 30.8844 28.5087L37.0613 19.9562C38.5818 18.0557 38.3284 16.6302 38.0116 16.155C36.8713 14.6346 35.0024 15.2048 34.2105 15.6799L28.5087 20.9065C28.1286 19.386 26.7665 19.0059 26.133 19.0059H13.7792C13.019 19.0059 11.8786 19.6395 11.4035 19.9562Z" fill="white"/>
<path d="M5.37915 25.8575L10.7374 20.5656C11.6842 19.687 12.9319 19.1975 14.2238 19.1975H25.6099C27.2588 19.1975 28.5908 19.8163 28.5908 21.4612C28.5908 23.1102 27.2548 24.4422 25.6099 24.4422H19.1225" stroke="#7B7D83" stroke-miterlimit="10"/>
<path d="M28.5907 20.8877L33.5897 15.997C34.6248 14.986 36.2376 14.8737 37.4051 15.7282C38.352 16.4223 38.0631 18.2518 37.4051 19.2227L31.2587 28.2899C30.5366 29.353 29.337 29.9909 28.0531 29.9909H16.4504L13.2849 32.6349" stroke="#7B7D83" stroke-miterlimit="10"/>
<path d="M1.46044 25.9322C0.657696 26.7092 0.64711 27.9932 1.43693 28.7833L9.49193 36.8412C10.2645 37.6141 11.5143 37.6238 12.2987 36.8631L14.0496 35.1652C14.8584 34.3808 14.86 33.0834 14.0531 32.2971L5.89259 24.3444C5.11782 23.5894 3.88311 23.5873 3.10577 24.3397L1.46044 25.9322Z" fill="#252629"/>
<path d="M27.411 2.36103C24.6331 -1.98384 20.3635 0.997929 20.3635 0.997929C20.3635 0.997929 16.094 -1.98384 13.3161 2.36103C13.3161 2.36103 11.6531 4.92845 14.9524 8.3207L20.3635 13.5756L25.7747 8.3207C29.074 4.92845 27.411 2.36103 27.411 2.36103Z" fill="#BD2125"/>
</svg>
